<?xml version="1.0" standalone="no"?>
<!DOCTYPE svg PUBLIC "-//W3C//DTD SVG 20010904//EN"
 "http://www.w3.org/TR/2001/REC-SVG-20010904/DTD/svg10.dtd">
<svg version="1.0" xmlns="http://www.w3.org/2000/svg"
 width="225.000000pt" height="225.000000pt" viewBox="0 0 225.000000 225.000000"
 preserveAspectRatio="xMidYMid meet">
<metadata>
Created by potrace 1.14, written by Peter Selinger 2001-2017
</metadata>
<g transform="translate(0.000000,225.000000) scale(0.100000,-0.100000)"
fill="#000000" stroke="none">
<path d="M1091 1525 c-6 -22 -69 -217 -140 -432 -71 -216 -127 -393 -125 -393
2 0 63 44 136 97 72 53 137 96 142 96 6 0 71 -43 144 -96 72 -53 132 -92 132
-86 0 8 -81 262 -97 305 -2 7 57 56 133 110 l137 99 -170 3 -169 2 -55 168
-56 167 -12 -40z"/>
</g>
</svg>
